<?xml version="1.0" encoding="iso-8859-1"?>
<!-- Generator: Adobe Illustrator 19.0.0, SVG Export Plug-In . SVG Version: 6.00 Build 0)  -->
<svg xmlns="http://www.w3.org/2000/svg" xmlns:xlink="http://www.w3.org/1999/xlink" version="1.1" id="Capa_1" x="0px" y="0px" viewBox="0 0 512 512" style="enable-background:new 0 0 512 512;" xml:space="preserve" width="512px" height="512px">
<g>
	<g>
		<g>
			
				<rect x="279.276" y="215.594" transform="matrix(0.9173 0.3983 -0.3983 0.9173 114.7075 -105.9923)" width="66.383" height="15.001" fill="#FFFFFF"/>
			<path d="M136.148,331.57l-0.312-0.615l-13.385,6.773l0.311,0.612c2.117,4.179,4.211,8.389,6.226,12.514l13.479-6.581     C140.42,340.081,138.294,335.804,136.148,331.57z" fill="#FFFFFF"/>
			<path d="M137.003,367.732c8.659,18.788,15.882,36.464,21.466,52.538l14.17-4.923c-5.744-16.533-13.15-34.665-22.013-53.894     L137.003,367.732z" fill="#FFFFFF"/>
			<path d="M463.148,255.26l-80.646-35.016v-77.112h-20.669V78.549h20.998v-15h-20.998h-65.249V20.084H263.5V0h-15v20.084h-33.085     v43.465h-65.249h-20.998v15h20.998v64.585h-20.669v77.112l-80.646,35.016l4.743,7.415c0.967,1.511,96.462,151.69,96.853,229.34     c-3.007,3.283-5.634,4.983-9.846,4.983c-5.748,0-8.541-3.151-13.38-9.19c-5.009-6.25-11.868-14.81-25.085-14.81v15     c5.748,0,8.541,3.151,13.38,9.19c5.009,6.25,11.868,14.81,25.085,14.81c13.216,0,20.074-8.56,25.083-14.81     c4.838-6.039,7.63-9.19,13.376-9.19c5.748,0,8.541,3.151,13.38,9.19c5.009,6.25,11.868,14.81,25.085,14.81     s20.076-8.56,25.085-14.81c4.839-6.039,7.632-9.19,13.38-9.19c5.748,0,8.541,3.151,13.381,9.19     c5.009,6.25,11.868,14.81,25.086,14.81c13.218,0,20.077-8.56,25.086-14.81c4.84-6.039,7.632-9.19,13.38-9.19     c5.749,0,8.543,3.151,13.383,9.19c5.01,6.25,11.87,14.81,25.088,14.81c13.219,0,20.079-8.56,25.089-14.81     c4.84-6.039,7.634-9.19,13.383-9.19v-15c-13.219,0-20.079,8.56-25.089,14.809c-4.84,6.039-7.634,9.191-13.384,9.191     c-4.209,0-6.836-1.697-9.84-4.972c0.382-77.615,95.887-227.84,96.853-229.352L463.148,255.26z M230.415,35.084h51.17v28.465     h-51.17V35.084z M165.167,78.549h50.249h81.17h50.249v64.585H165.167V78.549z M144.497,158.134L144.497,158.134h5.67h211.668     h5.669v55.599L256,165.318l-111.503,48.414V158.134z M347.508,477.354c-3.82-2.549-8.53-4.354-14.586-4.354     c-13.217,0-20.076,8.56-25.085,14.81c-4.84,6.039-7.633,9.19-13.381,9.19c-5.748,0-8.541-3.151-13.381-9.19     c-3.957-4.938-9.084-11.301-17.575-13.762V350.012h-15v124.029c-8.503,2.456-13.635,8.826-17.596,13.769     c-4.839,6.039-7.632,9.19-13.38,9.19c-5.748,0-8.541-3.151-13.38-9.19c-5.009-6.25-11.868-14.81-25.085-14.81     c-6.047,0-10.752,1.801-14.568,4.344c-8.749-73.701-75.058-185.285-93.596-215.301L256,181.671l185.105,80.372     C422.566,292.06,356.253,403.653,347.508,477.354z" fill="#FFFFFF"/>
			<rect x="248.5" y="315.86" width="15" height="14.358" fill="#FFFFFF"/>
			<path d="M194.737,86.399c-13.478,0-24.442,10.965-24.442,24.442s10.965,24.442,24.442,24.442     c13.477,0,24.442-10.964,24.442-24.442S208.214,86.399,194.737,86.399z M194.737,120.283c-5.207,0-9.442-4.236-9.442-9.442     s4.235-9.442,9.442-9.442c5.207,0,9.442,4.236,9.442,9.442S199.943,120.283,194.737,120.283z" fill="#FFFFFF"/>
			<path d="M255.998,86.399c-13.478,0-24.442,10.965-24.442,24.442s10.965,24.442,24.442,24.442     c13.476,0,24.441-10.964,24.441-24.442S269.474,86.399,255.998,86.399z M255.998,120.283c-5.207,0-9.442-4.236-9.442-9.442     s4.235-9.442,9.442-9.442c5.206,0,9.441,4.236,9.441,9.442S261.205,120.283,255.998,120.283z" fill="#FFFFFF"/>
			<path d="M317.26,86.399c-13.478,0-24.442,10.965-24.442,24.442s10.965,24.442,24.442,24.442s24.441-10.964,24.441-24.442     S330.737,86.399,317.26,86.399z M317.26,120.283c-5.207,0-9.442-4.236-9.442-9.442s4.235-9.442,9.442-9.442     c5.206,0,9.441,4.236,9.441,9.442C326.701,116.047,322.466,120.283,317.26,120.283z" fill="#FFFFFF"/>
			<path d="M313.526,282.656c0,10.701,6.997,19.794,16.655,22.957v75.448c-2.755-2.206-4.526-5.59-4.526-9.386v-13.784h-15v13.784     c0,14.902,12.124,27.026,27.026,27.026c14.902,0,27.026-12.124,27.026-27.026v-13.784h-15v13.784c0,3.795-1.772,7.18-4.526,9.386     v-75.448c9.658-3.163,16.655-12.256,16.655-22.957c0-13.319-10.836-24.155-24.155-24.155     C324.362,258.501,313.526,269.337,313.526,282.656z M346.834,282.656c0,1.947-0.616,3.749-1.655,5.234v-5.234h-15v5.234     c-1.04-1.485-1.655-3.288-1.655-5.234c0-5.048,4.108-9.155,9.155-9.155C342.727,273.501,346.834,277.608,346.834,282.656z" fill="#FFFFFF"/>
		</g>
	</g>
</g>
<g>
</g>
<g>
</g>
<g>
</g>
<g>
</g>
<g>
</g>
<g>
</g>
<g>
</g>
<g>
</g>
<g>
</g>
<g>
</g>
<g>
</g>
<g>
</g>
<g>
</g>
<g>
</g>
<g>
</g>
</svg>
