<?xml version="1.0" standalone="no"?>
<!DOCTYPE svg PUBLIC "-//W3C//DTD SVG 20010904//EN"
 "http://www.w3.org/TR/2001/REC-SVG-20010904/DTD/svg10.dtd">
<svg version="1.0" xmlns="http://www.w3.org/2000/svg"
 width="1000.000000pt" height="1000.000000pt" viewBox="0 0 1000.000000 1000.000000"
 preserveAspectRatio="xMidYMid meet">
<metadata>
Created by potrace 1.11, written by Peter Selinger 2001-2013
</metadata>
<g transform="translate(0.000000,1000.000000) scale(0.100000,-0.100000)"
fill="#000000" stroke="none">
<path d="M4813 9543 c0 -82 -1 -164 -2 -183 l-1 -35 -288 1 c-158 0 -292 -1
-298 -3 -8 -3 -11 -118 -12 -381 0 -207 -1 -384 -1 -392 -1 -13 -94 -15 -778
-15 l-778 1 -5 -46 c-3 -25 -4 -86 -2 -136 l3 -92 162 0 c89 0 174 0 190 -1
l27 -1 0 -585 0 -585 -188 0 -188 0 0 -677 c1 -373 -1 -690 -2 -704 -3 -19
-14 -29 -45 -41 -38 -15 -346 -147 -422 -182 -16 -8 -97 -43 -180 -79 -82 -36
-287 -125 -455 -197 -168 -73 -317 -138 -333 -145 l-27 -11 63 -100 c79 -124
232 -374 265 -434 14 -25 35 -61 48 -81 24 -38 206 -359 264 -464 18 -33 44
-80 58 -105 13 -25 45 -83 69 -130 25 -47 65 -121 88 -165 53 -99 261 -515
305 -610 86 -185 109 -235 140 -305 18 -41 42 -97 55 -125 47 -105 195 -486
244 -630 121 -350 198 -656 226 -895 3 -30 8 -71 11 -91 2 -19 5 -66 6 -103 2
-63 0 -69 -28 -93 -16 -13 -42 -32 -59 -41 -32 -16 -112 -21 -156 -9 -41 11
-101 64 -186 167 -118 141 -184 194 -284 229 -71 25 -159 35 -160 18 -3 -62
-3 -257 1 -258 3 0 18 -3 34 -5 64 -11 111 -49 220 -181 116 -142 197 -202
315 -235 114 -31 230 -20 337 32 77 38 134 88 231 203 124 148 160 174 246
181 80 7 134 -26 228 -137 199 -236 304 -299 489 -292 47 1 97 5 112 9 97 23
210 103 304 219 141 172 177 198 272 199 88 2 142 -33 236 -152 74 -93 126
-146 183 -187 86 -62 159 -86 263 -89 186 -5 314 66 475 266 96 119 149 158
227 163 87 7 147 -30 243 -148 76 -94 186 -197 240 -227 155 -83 361 -73 496
24 65 45 94 74 172 168 110 133 167 180 218 180 17 0 31 7 36 18 5 9 8 71 8
137 -1 139 4 133 -112 109 -118 -24 -214 -94 -339 -247 -119 -145 -157 -171
-249 -171 -64 0 -105 16 -151 59 -21 20 -27 34 -27 67 1 47 12 189 18 228 2
14 9 56 15 94 71 448 298 1106 611 1765 33 68 59 125 59 127 0 9 263 530 331
656 115 215 157 292 222 408 142 255 370 641 498 842 62 98 84 139 76 147 -6
6 -14 11 -18 11 -4 0 -324 138 -710 306 -387 168 -708 308 -714 310 -7 3 -10
246 -9 704 l0 700 -188 0 -188 0 0 585 0 585 33 1 c17 0 103 1 189 1 l157 1 3
129 c2 72 1 133 -2 137 -3 4 -353 7 -778 7 -473 -1 -776 3 -780 8 -3 6 -6 183
-6 395 l-1 386 -290 0 c-159 0 -295 3 -300 7 -6 4 -10 75 -9 182 l1 176 -137
0 -136 0 -1 -147z m537 -493 l65 0 0 -249 c0 -138 -4 -253 -8 -258 -5 -4 -213
-8 -463 -8 -396 0 -454 2 -455 15 -5 70 -3 478 2 490 7 15 74 16 859 10z
m1248 -1372 l1 -588 -1649 0 -1649 0 -1 584 c0 372 4 586 10 588 6 2 748 3
1649 3 l1639 0 0 -587z m374 -877 c2 -9 3 -234 2 -501 -1 -412 -3 -485 -15
-482 -13 3 -190 78 -519 222 -85 37 -272 118 -415 180 -143 62 -278 121 -300
131 -22 10 -206 90 -408 177 l-368 159 -252 -109 c-139 -60 -265 -116 -282
-123 -16 -7 -120 -52 -230 -100 -110 -48 -224 -98 -253 -111 -29 -13 -55 -24
-57 -24 -2 0 -28 -11 -57 -24 -29 -13 -120 -53 -203 -89 -456 -197 -528 -228
-586 -255 -118 -54 -104 -113 -102 446 1 268 2 494 2 503 1 15 167 16 2020 16
1845 0 2020 -1 2023 -16z m-1986 -427 c22 -9 57 -24 79 -34 36 -16 1475 -641
1640 -712 39 -17 88 -38 110 -48 47 -21 1415 -615 1463 -635 l33 -14 -54 -88
c-60 -97 -269 -451 -309 -524 -276 -496 -344 -625 -528 -997 -72 -144 -130
-264 -130 -266 0 -2 -22 -51 -49 -108 -65 -138 -167 -374 -231 -534 -28 -71
-58 -145 -65 -164 -8 -19 -23 -60 -34 -90 -10 -30 -35 -100 -54 -155 -67 -190
-146 -456 -172 -580 -3 -11 -7 -31 -10 -45 -3 -14 -8 -36 -11 -50 -7 -35 -44
-239 -50 -277 l-5 -32 -52 26 c-73 37 -149 53 -236 49 -162 -8 -282 -81 -426
-261 -112 -140 -154 -168 -251 -169 -90 0 -120 22 -259 186 -93 110 -139 150
-231 199 l-67 35 0 1122 0 1122 -41 1 c-44 1 -191 0 -217 0 -14 -1 -15 -112
-15 -1123 l1 -1123 -75 -37 c-76 -37 -148 -99 -225 -193 -120 -148 -170 -185
-256 -191 -83 -5 -137 31 -255 171 -160 191 -270 256 -437 260 -97 3 -144 -7
-219 -45 -38 -19 -58 -25 -59 -17 0 6 -2 21 -5 32 -2 11 -6 34 -8 50 -3 24
-20 118 -42 228 -2 10 -5 26 -8 35 -3 9 -7 28 -10 42 -17 96 -110 408 -194
645 -87 247 -194 510 -349 855 -112 250 -388 798 -532 1059 -26 47 -65 118
-86 156 -68 125 -266 466 -366 633 l-99 163 33 14 c47 20 955 414 1002 435 22
10 99 43 171 73 72 31 159 69 195 85 35 16 161 71 279 122 118 51 238 103 265
115 28 13 115 50 195 84 80 34 154 66 165 71 11 6 252 111 535 234 283 124
516 225 516 225 1 1 19 -6 40 -15z"/>
<path d="M3714 8091 c-280 -81 -408 -402 -261 -653 32 -55 121 -139 175 -167
93 -47 209 -61 322 -37 101 22 226 125 279 230 66 130 66 270 2 401 -92 186
-317 284 -517 226z m215 -286 c42 -26 73 -81 76 -134 7 -121 -120 -208 -236
-163 -41 16 -85 67 -97 112 -39 155 122 271 257 185z"/>
<path d="M4834 8091 c-84 -24 -142 -60 -203 -127 -60 -66 -85 -111 -106 -191
-19 -73 -19 -143 0 -218 73 -278 381 -415 639 -283 94 48 187 165 220 277 21
72 15 198 -14 274 -21 55 -86 149 -121 175 -10 7 -24 18 -31 25 -23 21 -91 55
-143 70 -70 20 -169 19 -241 -2z m215 -286 c89 -55 101 -184 25 -260 -99 -100
-272 -39 -287 100 -6 57 8 96 48 138 58 60 141 69 214 22z"/>
<path d="M5951 8094 c-129 -34 -239 -128 -292 -250 -27 -60 -31 -77 -35 -160
-5 -129 33 -231 123 -325 130 -136 328 -175 497 -100 199 87 305 307 251 516
-63 239 -308 383 -544 319z m209 -289 c50 -35 72 -78 73 -141 1 -125 -126
-206 -241 -151 -115 54 -130 208 -28 288 55 43 137 45 196 4z"/>
<path d="M5469 5967 c-7 -18 -28 -65 -46 -105 -54 -119 -76 -98 237 -234 151
-65 284 -123 295 -127 11 -5 130 -57 265 -116 135 -59 250 -109 255 -111 6 -3
18 12 27 33 9 21 33 75 52 120 20 45 36 84 36 87 0 6 -126 66 -139 66 -4 0
-25 8 -47 19 -51 24 -40 19 -529 231 -192 84 -360 156 -372 160 -18 7 -23 4
-34 -23z"/>
<path d="M6328 4981 c-197 -63 -319 -233 -313 -436 5 -160 98 -303 247 -378
l55 -28 0 -675 c0 -371 -4 -677 -8 -680 -9 -5 -44 42 -60 82 -7 17 -12 90 -13
171 -1 78 -4 144 -7 147 -5 5 -106 9 -212 7 l-58 -1 2 -157 c1 -99 7 -178 15
-212 35 -134 134 -255 257 -316 233 -114 503 -39 641 177 62 98 71 142 71 337
l0 174 -129 -2 c-72 -1 -132 -4 -136 -6 -3 -2 -5 -59 -5 -127 1 -68 -3 -141
-7 -163 -9 -42 -52 -115 -67 -115 -6 0 -9 282 -9 679 l0 680 55 27 c182 92
278 284 242 479 -27 144 -143 277 -289 331 -68 24 -203 27 -272 5z m212 -279
c34 -22 45 -33 64 -69 20 -39 20 -110 1 -143 -15 -25 -15 -24 -13 17 1 23 -1
45 -4 48 -7 7 -259 8 -266 1 -3 -3 -5 -25 -4 -48 1 -42 1 -42 -13 -18 -34 59
-5 168 54 206 53 35 131 38 181 6z"/>
<path d="M4820 3820 l0 -130 135 0 135 0 0 130 0 130 -135 0 -135 0 0 -130z"/>
<path d="M2650 3619 c-63 -32 -114 -64 -112 -70 4 -15 102 -215 109 -222 3 -3
59 21 124 54 l119 59 -60 120 c-33 66 -61 120 -63 119 -1 0 -54 -27 -117 -60z"/>
<path d="M2913 3073 l-121 -55 18 -42 c9 -22 54 -122 97 -221 80 -178 215
-514 247 -610 26 -79 18 -78 156 -31 106 37 124 46 121 62 -3 19 -73 210 -90
249 -5 11 -19 47 -32 80 -40 106 -267 626 -272 625 -1 -1 -57 -26 -124 -57z"/>
</g>
</svg>
